# xmcd
#
# Track frame offsets:
#	183
#	17783
#	35883
#	54908
#	75645
#	85333
#	102183
#	115270
#	134495
#	145620
#
# Disc length: 2189 seconds
#
# Revision: 19
# Processed by: cddbd v1.5.2PL0 Copyright (c) Steve Scherf et al.
# Submitted via: Jack! The Knife 20 Magnifico
#
DISCID=80088b0a
DTITLE=Fabio Concato - Fabio Concato
DYEAR=1984
DGENRE=Pop
TTITLE0=Fiore di maggio
TTITLE1=Ti ricordo ancora
TTITLE2=Sexy tango
TTITLE3=Tienimi dentro te
TTITLE4=La nave
TTITLE5=Guido piano
TTITLE6=Computerino
TTITLE7=Quando sarò grande
TTITLE8=Rosalina
TTITLE9=Festa di mare
EXTD=
EXTT0=Fabio Concato
EXTT1=Fabio Concato
EXTT2=Fabio Concato
EXTT3=Fabio Concato
EXTT4=Fabio Concato
EXTT5=Fabio Concato
EXTT6=Fabio Concato
EXTT7=Fabio Concato
EXTT8=Fabio Concato
EXTT9=Fabio Concato
PLAYORDER=
